<svg width="315" height="83" viewBox="0 0 315 83" fill="none" xmlns="http://www.w3.org/2000/svg">
<path d="M6.65845 29.085L15.6921 27.988L16.1474 32.5665C17.3894 30.9046 18.8411 29.5867 20.5025 28.6126C22.1598 27.6055 23.915 26.9894 25.7681 26.7643C27.7535 26.5232 29.6297 26.7655 31.3967 27.4911C33.1928 28.1796 34.8015 29.2602 36.2227 30.7329C37.64 32.1726 38.8061 33.8945 39.721 35.8989C40.636 37.9032 41.2361 40.08 41.5215 42.4294C41.8148 44.845 41.7381 47.2552 41.2914 49.6599C40.36 54.709 37.6169 58.8029 33.062 61.9416C28.5072 65.0802 21.9115 67.174 13.275 68.2228L6.65845 29.085ZM19.3404 64.6657C23.9786 62.4906 27.3915 60.179 29.579 57.7308C31.7665 55.2825 33.0355 53.013 33.386 50.9222C33.6944 49.0379 33.72 47.0369 33.4628 44.9191C33.1936 42.7021 32.6551 40.6184 31.8475 38.6683C31.0398 36.7181 30.0427 35.1434 28.8562 33.9444C27.7027 32.7414 26.4707 32.1355 25.1601 32.1267C24.4531 32.1119 23.7688 32.1446 23.107 32.225C21.9488 32.3656 20.8087 32.6552 19.6867 33.0936C18.5607 33.499 17.4568 34.0864 16.375 34.8557L19.3404 64.6657Z" fill="black"/>
<path d="M86.9608 60.8271L64.9559 44.1877L64.9496 43.486C66.8779 42.9296 68.5828 42.0902 70.0642 40.9678C71.5762 39.8095 72.8117 38.5397 73.7707 37.1584C74.7603 35.7412 75.4189 34.3673 75.7467 33.0367C75.9762 32.1488 76.0603 31.3227 75.9988 30.5585C75.8946 29.2627 75.3605 28.2355 74.3966 27.477C73.4327 26.7186 72.0204 26.4141 70.1597 26.5638C67.8671 26.7482 65.4836 27.2576 63.0092 28.092L64.9795 61.943L58.6001 62.4561L53.6293 23.7299L62.7 23.0004L62.8707 25.7455C64.3628 24.7561 65.8876 23.9646 67.445 23.3711C69.033 22.7418 70.5746 22.367 72.0698 22.2468C74.8608 22.0223 77.1243 22.3084 78.8604 23.1051C80.5939 23.8686 81.8822 24.9187 82.7255 26.2554C83.5992 27.5562 84.0949 28.9375 84.2125 30.3995C84.2927 31.3963 84.218 32.3386 83.9884 33.2266C83.6382 34.6927 82.9283 36.054 81.859 37.3104C80.8201 38.531 79.5839 39.5835 78.1502 40.4679C76.7497 41.3497 75.3498 42.0308 73.9505 42.5112L87.6127 60.8248L86.9608 60.8271Z" fill="black"/>
<path d="M125.544 58.9484L119.132 46.6011L99.4905 50.8608L94.6704 60.2165L93.9211 60.2473L105.938 20.2204L113.783 18.6972L131.413 58.0568L125.544 58.9484ZM110.275 29.5503L103.1 43.7067L118.484 45.4268L110.275 29.5503Z" fill="black"/>
<path d="M170.412 59.0028C162.912 59.0063 156.862 58.3258 152.261 56.9612C147.66 55.5633 144.293 53.6149 142.158 51.1159C140.057 48.5835 139.006 45.6507 139.004 42.3173C139.002 38.3173 139.517 34.8004 140.549 31.7666C141.581 28.7328 142.963 26.1988 144.696 24.1647C146.428 22.0972 148.361 20.5463 150.494 19.512C152.627 18.4777 154.793 17.96 156.993 17.959C159.56 17.9578 162.143 18.2233 164.743 18.7554C167.344 19.2876 169.711 20.1032 171.844 21.2022L169.048 29.3535C166.947 27.2211 164.746 25.5554 162.446 24.3565C160.179 23.1242 157.862 22.5086 155.495 22.5097C154.362 22.5102 153.279 23.0107 152.246 24.0112C151.213 24.9784 150.297 26.2621 149.498 27.8625C148.698 29.4295 148.066 31.1631 147.6 33.0634C147.168 34.9636 146.952 36.8137 146.953 38.6137C146.954 40.947 147.255 43.0635 147.855 44.9632C148.456 46.8296 149.474 48.5125 150.908 50.0118C152.375 51.4778 154.359 52.7602 156.86 53.8591C159.393 54.9246 162.577 55.8231 166.411 56.5547L165.305 43.3052L154.754 40.8101L154.753 40.2101L173.151 35.7016L171.912 59.0021L170.412 59.0028Z" fill="black"/>
<path d="M215.031 60.4815C207.537 60.1737 201.52 59.2426 196.98 57.6883C192.442 56.1007 189.158 54.0142 187.129 51.4288C185.135 48.8114 184.206 45.8374 184.343 42.5069C184.507 38.5103 185.167 35.0178 186.324 32.0294C187.481 29.041 188.967 26.5666 190.783 24.6061C192.599 22.6123 194.595 21.143 196.769 20.1981C198.943 19.2532 201.129 18.8258 203.327 18.9161C205.891 19.0215 208.462 19.3939 211.037 20.0335C213.613 20.6731 215.945 21.5862 218.031 22.7728L214.899 30.8011C212.888 28.5833 210.758 26.8278 208.51 25.5344C206.295 24.2091 204.006 23.4979 201.641 23.4007C200.509 23.3542 199.406 23.8094 198.333 24.7661C197.26 25.6895 196.292 26.9342 195.427 28.5C194.563 30.0325 193.859 31.7384 193.315 33.6176C192.804 35.4983 192.512 37.3378 192.438 39.1363C192.342 41.4677 192.555 43.5948 193.076 45.5179C193.599 47.4076 194.546 49.1312 195.917 50.6888C197.322 52.2144 199.251 53.5781 201.704 54.7797C204.191 55.9495 207.335 56.9794 211.135 57.8694L210.579 44.5854L200.141 41.6545L200.166 41.0551L218.735 37.314L216.53 60.5431L215.031 60.4815Z" fill="black"/>
<path d="M246.192 62.7052C244.298 62.5477 242.344 61.9167 240.328 60.8125C238.349 59.6777 236.521 58.1375 234.843 56.1916C233.165 54.2458 231.867 51.9636 230.947 49.345C230.028 46.7264 229.699 43.8392 229.962 40.6834C230.167 38.2253 230.721 35.9802 231.626 33.9482C232.567 31.8858 233.738 30.0767 235.139 28.5208C236.539 26.9649 238.068 25.6706 239.726 24.6379C241.387 23.572 243.056 22.8078 244.734 22.3453C246.447 21.8523 248.068 21.6695 249.596 21.7966C251.091 21.921 252.626 22.3665 254.201 23.1331C255.809 23.9025 257.328 24.9487 258.756 26.2717C260.221 27.5643 261.515 29.0936 262.639 30.8595C263.763 32.6255 264.604 34.5853 265.16 36.7389C265.717 38.8924 265.893 41.1983 265.689 43.6565C265.426 46.8122 264.625 49.6054 263.285 52.0361C261.946 54.4667 260.305 56.5042 258.362 58.1488C256.418 59.7933 254.377 61.0115 252.237 61.8035C250.1 62.5622 248.085 62.8628 246.192 62.7052ZM248.541 58.5859C250.103 58.7158 251.524 58.3157 252.806 57.3854C254.087 56.4551 255.136 55.1041 255.953 53.3324C256.805 51.5302 257.332 49.4167 257.534 46.9917C257.813 43.6366 257.674 40.6816 257.118 38.1266C256.564 35.5385 255.741 33.3628 254.65 31.5996C253.56 29.8364 252.351 28.4815 251.025 27.5349C249.732 26.5911 248.471 26.0681 247.242 25.9658C245.714 25.8386 244.293 26.2388 242.978 27.1663C241.666 28.0606 240.57 29.3742 239.69 31.1072C238.843 32.8429 238.319 34.9233 238.117 37.3482C237.821 40.9026 237.949 43.9905 238.5 46.6119C239.084 49.2361 239.923 51.4131 241.017 53.1431C242.144 54.8759 243.372 56.1989 244.7 57.1123C246.032 57.9924 247.312 58.4836 248.541 58.5859Z" fill="black"/>
<path d="M305.092 57.7333C304.541 60.5537 303.469 62.7049 301.875 64.1869C300.285 65.6359 298.388 66.5767 296.185 67.0094C294.019 67.413 291.728 67.4654 289.314 67.1664C287.593 66.9535 285.78 66.2756 283.872 65.1326C281.998 63.9937 280.228 62.4144 278.564 60.3946C276.899 58.3749 275.524 55.9206 274.437 53.0319L274.828 52.7276C276.024 53.9169 277.315 55.0172 278.701 56.0284C280.121 57.0438 281.538 57.9414 282.953 58.7211C284.372 59.4677 285.691 60.0677 286.912 60.5211C288.165 60.9785 289.189 61.2563 289.983 61.3546C291.537 61.5471 292.889 61.3449 294.038 60.7482C295.219 60.1555 295.997 59.0259 296.372 57.3592L296.39 57.2104C296.48 56.4826 296.095 55.6623 295.234 54.7497C294.377 53.8039 293.228 52.7716 291.788 51.6529C290.381 50.5383 288.881 49.3618 287.287 48.1233C285.727 46.889 284.254 45.6318 282.867 44.3518C281.485 43.0387 280.371 41.7252 279.526 40.4115C278.714 39.1018 278.388 37.8019 278.548 36.5117C278.568 36.3463 278.585 36.214 278.597 36.1148C278.613 35.9825 278.646 35.8522 278.696 35.724C279.367 33.5567 280.483 31.73 282.044 30.2438C283.638 28.7617 285.452 27.6763 287.485 26.9876C289.552 26.3029 291.627 26.0895 293.711 26.3475C295.828 26.6096 298.053 27.2209 300.386 28.1814C302.757 29.113 305.142 30.3318 307.541 31.8381L303.761 39.5824C301.492 36.7488 299.505 34.6219 297.8 33.2017C296.095 31.7815 294.415 30.969 292.761 30.7643C290.975 30.5432 289.547 30.8198 288.477 31.5943C287.444 32.3397 286.735 33.7297 286.349 35.7644L286.33 35.9132C286.236 36.6741 286.522 37.4821 287.189 38.3371C287.856 39.1921 288.768 40.0944 289.927 41.044C291.09 41.9604 292.365 42.9243 293.751 43.9356C295.174 44.9179 296.575 45.9478 297.953 47.0252C299.368 48.0737 300.643 49.1719 301.777 50.32C302.916 51.4349 303.798 52.5853 304.423 53.7712C305.053 54.9239 305.292 56.1123 305.141 57.3363L305.092 57.7333Z" fill="black"/>
</svg>
